<svg xmlns="http://www.w3.org/2000/svg" viewBox="0 0 440 400" font-family="Noto Sans JP, sans-serif" font-size="15" fill="#222"><defs><marker id="a" viewBox="0 0 10 10" refX="5" refY="5" markerWidth="6" markerHeight="6" orient="auto"><path d="M0 0L10 5L0 10z" fill="#333"/></marker></defs><style>.t{text-anchor:middle}.ar{stroke:#333;stroke-width:3;marker-end:url(#a)}</style><text x="40" y="30">予測</text><text class="t" x="280" y="30" font-weight="bold">肯定的</text><line class="ar" x1="280" y1="70" x2="280" y2="42"/><rect x="130" y="78" width="300" height="44" rx="8" fill="#fff" stroke="#333"/><text class="t" x="280" y="106">タスク固有のニューラルネットワーク</text><line class="ar" x1="280" y1="150" x2="280" y2="126"/><rect x="167" y="156" width="26" height="20" fill="#cbd5e1" stroke="#333"/><rect x="167" y="176" width="26" height="20" fill="#cbd5e1" stroke="#333"/><rect x="167" y="196" width="26" height="20" fill="#cbd5e1" stroke="#333"/><rect x="167" y="216" width="26" height="20" fill="#cbd5e1" stroke="#333"/><rect x="150" y="256" width="60" height="30" fill="#fff" stroke="#333"/><text class="t" x="180" y="277">この</text><rect x="237" y="156" width="26" height="20" fill="#cbd5e1" stroke="#333"/><rect x="237" y="176" width="26" height="20" fill="#cbd5e1" stroke="#333"/><rect x="237" y="196" width="26" height="20" fill="#cbd5e1" stroke="#333"/><rect x="237" y="216" width="26" height="20" fill="#cbd5e1" stroke="#333"/><rect x="220" y="256" width="60" height="30" fill="#fff" stroke="#333"/><text class="t" x="250" y="277">映画</text><rect x="307" y="156" width="26" height="20" fill="#cbd5e1" stroke="#333"/><rect x="307" y="176" width="26" height="20" fill="#cbd5e1" stroke="#333"/><rect x="307" y="196" width="26" height="20" fill="#cbd5e1" stroke="#333"/><rect x="307" y="216" width="26" height="20" fill="#cbd5e1" stroke="#333"/><rect x="290" y="256" width="60" height="30" fill="#fff" stroke="#333"/><text class="t" x="320" y="277">は</text><rect x="377" y="156" width="26" height="20" fill="#cbd5e1" stroke="#333"/><rect x="377" y="176" width="26" height="20" fill="#cbd5e1" stroke="#333"/><rect x="377" y="196" width="26" height="20" fill="#cbd5e1" stroke="#333"/><rect x="377" y="216" width="26" height="20" fill="#cbd5e1" stroke="#333"/><rect x="360" y="256" width="60" height="30" fill="#fff" stroke="#333"/><text class="t" x="390" y="277">面白い</text><text class="t" x="70" y="196">単語埋め込み</text><text class="t" x="70" y="216" font-size="13">(word2vec)</text><text class="t" x="70" y="277">入力文</text></svg>