<svg xmlns="http://www.w3.org/2000/svg" viewBox="0 0 960 470" width="960" height="470" font-family="Noto Sans JP, sans-serif" font-size="16" fill="#1f2937"><defs><marker id="a" viewBox="0 0 10 10" refX="9" refY="5" markerWidth="7" markerHeight="7" orient="auto-start-reverse"><path d="M0 0L10 5L0 10z" fill="#374151"/></marker><marker id="g" viewBox="0 0 10 10" refX="9" refY="5" markerWidth="7" markerHeight="7" orient="auto-start-reverse"><path d="M0 0L10 5L0 10z" fill="#9ca3af"/></marker></defs><rect x="0" y="0" width="960" height="470" fill="#ffffff"/><rect x="8" y="8" width="944" height="102" rx="8" fill="#ffffff" stroke="#e5e7eb" stroke-width="1"/><rect x="18" y="22" width="150" height="74" rx="8" fill="#ffedd5" stroke="#ea580c" stroke-width="2"/><text x="93" y="52" font-size="20" text-anchor="middle" font-weight="bold" fill="#1f2937" >GPT</text><text x="93" y="75" font-size="13" text-anchor="middle" font-weight="normal" fill="#374151" >次単語予測</text><rect x="8" y="120" width="944" height="102" rx="8" fill="#ffffff" stroke="#e5e7eb" stroke-width="1"/><rect x="18" y="134" width="150" height="74" rx="8" fill="#f1f5f9" stroke="#64748b" stroke-width="2"/><text x="93" y="164" font-size="20" text-anchor="middle" font-weight="bold" fill="#1f2937" >ELMo</text><text x="93" y="187" font-size="13" text-anchor="middle" font-weight="normal" fill="#374151" >順・逆の言語モデル</text><rect x="8" y="232" width="944" height="102" rx="8" fill="#ffffff" stroke="#e5e7eb" stroke-width="1"/><rect x="18" y="246" width="150" height="74" rx="8" fill="#dbeafe" stroke="#2563eb" stroke-width="2"/><text x="93" y="276" font-size="20" text-anchor="middle" font-weight="bold" fill="#1f2937" >BERT</text><text x="93" y="299" font-size="13" text-anchor="middle" font-weight="normal" fill="#374151" >マスク言語モデル</text><rect x="8" y="344" width="944" height="102" rx="8" fill="#ffffff" stroke="#e5e7eb" stroke-width="1"/><rect x="18" y="358" width="150" height="74" rx="8" fill="#dcfce7" stroke="#16a34a" stroke-width="2"/><text x="93" y="388" font-size="20" text-anchor="middle" font-weight="bold" fill="#1f2937" >T5</text><text x="93" y="411" font-size="13" text-anchor="middle" font-weight="normal" fill="#374151" >スパン穴埋め</text><rect x="190" y="26" width="50.0" height="32" rx="5" fill="#ffffff" stroke="#6b7280" stroke-width="1.5"/><text x="215.0" y="47.76" font-size="16" text-anchor="middle" font-weight="normal" fill="#111827" >日本</text><rect x="246.0" y="26" width="36" height="32" rx="5" fill="#ffffff" stroke="#6b7280" stroke-width="1.5"/><text x="264.0" y="47.76" font-size="16" text-anchor="middle" font-weight="normal" fill="#111827" >の</text><rect x="288.0" y="26" width="50.0" height="32" rx="5" fill="#ffffff" stroke="#6b7280" stroke-width="1.5"/><text x="313.0" y="47.76" font-size="16" text-anchor="middle" font-weight="normal" fill="#111827" >首都</text><rect x="344.0" y="26" width="36" height="32" rx="5" fill="#ffffff" stroke="#6b7280" stroke-width="1.5"/><text x="362.0" y="47.76" font-size="16" text-anchor="middle" font-weight="normal" fill="#111827" >は</text><line x1="388.0" y1="42" x2="426.0" y2="42" stroke="#374151" stroke-width="2" marker-end="url(#a)"/><rect x="432.0" y="26" width="50.0" height="32" rx="5" fill="#fee2e2" stroke="#dc2626" stroke-width="1.5" stroke-dasharray="4 3"/><text x="457.0" y="47.76" font-size="16" text-anchor="middle" font-weight="normal" fill="#dc2626" >東京</text><text x="190" y="88" font-size="13" text-anchor="start" font-weight="normal" fill="#4b5563" >左側（過去）の単語だけを見て、次の単語を当てる。これを繰り返せば文章が生成できる</text><rect x="190" y="130" width="48.0" height="28" rx="5" fill="#ffffff" stroke="#6b7280" stroke-width="1.5"/><text x="214.0" y="149.4" font-size="15" text-anchor="middle" font-weight="normal" fill="#111827" >日本</text><rect x="244.0" y="130" width="36" height="28" rx="5" fill="#ffffff" stroke="#6b7280" stroke-width="1.5"/><text x="262.0" y="149.4" font-size="15" text-anchor="middle" font-weight="normal" fill="#111827" >の</text><rect x="286.0" y="130" width="48.0" height="28" rx="5" fill="#ffffff" stroke="#6b7280" stroke-width="1.5"/><text x="310.0" y="149.4" font-size="15" text-anchor="middle" font-weight="normal" fill="#111827" >首都</text><rect x="340.0" y="130" width="36" height="28" rx="5" fill="#ffffff" stroke="#6b7280" stroke-width="1.5"/><text x="358.0" y="149.4" font-size="15" text-anchor="middle" font-weight="normal" fill="#111827" >は</text><line x1="384.0" y1="144" x2="416.0" y2="144" stroke="#374151" stroke-width="2" marker-end="url(#a)"/><rect x="422.0" y="130" width="48.0" height="28" rx="5" fill="#fee2e2" stroke="#dc2626" stroke-width="1.5" stroke-dasharray="4 3"/><text x="446.0" y="149.4" font-size="15" text-anchor="middle" font-weight="normal" fill="#dc2626" >東京</text><text x="560" y="149" font-size="13" text-anchor="start" font-weight="normal" fill="#4b5563" >順方向 LSTM</text><rect x="190" y="166" width="48.0" height="28" rx="5" fill="#fee2e2" stroke="#dc2626" stroke-width="1.5" stroke-dasharray="4 3"/><text x="214.0" y="185.4" font-size="15" text-anchor="middle" font-weight="normal" fill="#dc2626" >日本</text><line x1="278.0" y1="180" x2="246.0" y2="180" stroke="#374151" stroke-width="2" marker-end="url(#a)"/><rect x="284.0" y="166" width="36" height="28" rx="5" fill="#ffffff" stroke="#6b7280" stroke-width="1.5"/><text x="302.0" y="185.4" font-size="15" text-anchor="middle" font-weight="normal" fill="#111827" >の</text><rect x="326.0" y="166" width="48.0" height="28" rx="5" fill="#ffffff" stroke="#6b7280" stroke-width="1.5"/><text x="350.0" y="185.4" font-size="15" text-anchor="middle" font-weight="normal" fill="#111827" >首都</text><rect x="380.0" y="166" width="36" height="28" rx="5" fill="#ffffff" stroke="#6b7280" stroke-width="1.5"/><text x="398.0" y="185.4" font-size="15" text-anchor="middle" font-weight="normal" fill="#111827" >は</text><rect x="422.0" y="166" width="48.0" height="28" rx="5" fill="#ffffff" stroke="#6b7280" stroke-width="1.5"/><text x="446.0" y="185.4" font-size="15" text-anchor="middle" font-weight="normal" fill="#111827" >東京</text><text x="560" y="185" font-size="13" text-anchor="start" font-weight="normal" fill="#4b5563" >逆方向 LSTM（2つは別々に学習し、出力を連結して使う）</text><rect x="190" y="250" width="64.4" height="32" rx="5" fill="#ffffff" stroke="#6b7280" stroke-width="1.5"/><text x="222.2" y="271.76" font-size="16" text-anchor="middle" font-weight="normal" fill="#111827" >[CLS]</text><rect x="260.4" y="250" width="50.0" height="32" rx="5" fill="#ffffff" stroke="#6b7280" stroke-width="1.5"/><text x="285.4" y="271.76" font-size="16" text-anchor="middle" font-weight="normal" fill="#111827" >日本</text><rect x="316.4" y="250" width="36" height="32" rx="5" fill="#ffffff" stroke="#6b7280" stroke-width="1.5"/><text x="334.4" y="271.76" font-size="16" text-anchor="middle" font-weight="normal" fill="#111827" >の</text><rect x="358.4" y="250" width="73.68" height="32" rx="5" fill="#e5e7eb" stroke="#374151" stroke-width="1.5"/><text x="395.24" y="271.76" font-size="16" text-anchor="middle" font-weight="normal" fill="#111827" >[MASK]</text><rect x="438.08" y="250" width="36" height="32" rx="5" fill="#ffffff" stroke="#6b7280" stroke-width="1.5"/><text x="456.08" y="271.76" font-size="16" text-anchor="middle" font-weight="normal" fill="#111827" >は</text><rect x="480.08" y="250" width="50.0" height="32" rx="5" fill="#ffffff" stroke="#6b7280" stroke-width="1.5"/><text x="505.08" y="271.76" font-size="16" text-anchor="middle" font-weight="normal" fill="#111827" >東京</text><rect x="536.0799999999999" y="250" width="64.4" height="32" rx="5" fill="#ffffff" stroke="#6b7280" stroke-width="1.5"/><text x="568.28" y="271.76" font-size="16" text-anchor="middle" font-weight="normal" fill="#111827" >[SEP]</text><line x1="608.4799999999999" y1="266" x2="646.4799999999999" y2="266" stroke="#374151" stroke-width="2" marker-end="url(#a)"/><rect x="652.4799999999999" y="250" width="50.0" height="32" rx="5" fill="#fee2e2" stroke="#dc2626" stroke-width="1.5" stroke-dasharray="4 3"/><text x="677.4799999999999" y="271.76" font-size="16" text-anchor="middle" font-weight="normal" fill="#dc2626" >首都</text><text x="722.4799999999999" y="271" font-size="14" text-anchor="start" font-weight="normal" fill="#374151" >＋ NSP（文Bは文Aの続きか？）</text><text x="190" y="312" font-size="13" text-anchor="start" font-weight="normal" fill="#4b5563" >入力の15％を隠し、左右両方の文脈から元の単語を当てる（生成は苦手）</text><text x="190" y="379" font-size="14" text-anchor="start" font-weight="bold" fill="#374151" >入力</text><rect x="230" y="358" width="48.0" height="30" rx="5" fill="#ffffff" stroke="#6b7280" stroke-width="1.5"/><text x="254.0" y="378.4" font-size="15" text-anchor="middle" font-weight="normal" fill="#111827" >日本</text><rect x="284.0" y="358" width="36" height="30" rx="5" fill="#ffffff" stroke="#6b7280" stroke-width="1.5"/><text x="302.0" y="378.4" font-size="15" text-anchor="middle" font-weight="normal" fill="#111827" >の</text><rect x="326.0" y="358" width="44.099999999999994" height="30" rx="5" fill="#ede9fe" stroke="#7c3aed" stroke-width="1.5"/><text x="348.05" y="378.4" font-size="15" text-anchor="middle" font-weight="normal" fill="#6d28d9" >&lt;X&gt;</text><rect x="376.1" y="358" width="48.0" height="30" rx="5" fill="#ffffff" stroke="#6b7280" stroke-width="1.5"/><text x="400.1" y="378.4" font-size="15" text-anchor="middle" font-weight="normal" fill="#111827" >東京</text><rect x="430.1" y="358" width="63.0" height="30" rx="5" fill="#ffffff" stroke="#6b7280" stroke-width="1.5"/><text x="461.6" y="378.4" font-size="15" text-anchor="middle" font-weight="normal" fill="#111827" >である</text><line x1="505.1" y1="373" x2="543.1" y2="373" stroke="#374151" stroke-width="2" marker-end="url(#a)"/><text x="553.1" y="379" font-size="14" text-anchor="start" font-weight="bold" fill="#374151" >出力</text><rect x="593.1" y="358" width="44.099999999999994" height="30" rx="5" fill="#ede9fe" stroke="#7c3aed" stroke-width="1.5"/><text x="615.15" y="378.4" font-size="15" text-anchor="middle" font-weight="normal" fill="#6d28d9" >&lt;X&gt;</text><rect x="643.2" y="358" width="48.0" height="30" rx="5" fill="#fee2e2" stroke="#dc2626" stroke-width="1.5" stroke-dasharray="4 3"/><text x="667.2" y="378.4" font-size="15" text-anchor="middle" font-weight="normal" fill="#dc2626" >首都</text><rect x="697.2" y="358" width="36" height="30" rx="5" fill="#fee2e2" stroke="#dc2626" stroke-width="1.5" stroke-dasharray="4 3"/><text x="715.2" y="378.4" font-size="15" text-anchor="middle" font-weight="normal" fill="#dc2626" >は</text><rect x="739.2" y="358" width="44.099999999999994" height="30" rx="5" fill="#ede9fe" stroke="#7c3aed" stroke-width="1.5"/><text x="761.25" y="378.4" font-size="15" text-anchor="middle" font-weight="normal" fill="#6d28d9" >&lt;Y&gt;</text><text x="190" y="416" font-size="13" text-anchor="start" font-weight="normal" fill="#4b5563" >連続する区間（スパン）を目印トークン &lt;X&gt; に置き換え、消した中身をデコーダが生成する</text><text x="190" y="436" font-size="12" text-anchor="start" font-weight="normal" fill="#6b7280" >（transformers では &lt;extra_id_0&gt;, &lt;extra_id_1&gt;, … と書く）</text></svg>
