<svg xmlns="http://www.w3.org/2000/svg" viewBox="0 0 960 430" width="960" height="430" font-family="Noto Sans JP, sans-serif" font-size="16" fill="#1f2937"><defs><marker id="a" viewBox="0 0 10 10" refX="9" refY="5" markerWidth="7" markerHeight="7" orient="auto-start-reverse"><path d="M0 0L10 5L0 10z" fill="#374151"/></marker><marker id="g" viewBox="0 0 10 10" refX="9" refY="5" markerWidth="7" markerHeight="7" orient="auto-start-reverse"><path d="M0 0L10 5L0 10z" fill="#9ca3af"/></marker></defs><rect x="0" y="0" width="960" height="430" fill="#ffffff"/><rect x="10" y="6" width="300" height="418" rx="10" fill="#ffffff" stroke="#e5e7eb" stroke-width="1"/><text x="160" y="30" font-size="16" text-anchor="middle" font-weight="bold" fill="#1f2937" >文書分類・NLI・STS</text><rect x="28" y="384" width="48" height="26" rx="4" fill="#ffffff" stroke="#6b7280" stroke-width="1.2"/><text x="52" y="402" font-size="12" text-anchor="middle" font-weight="normal" fill="#1f2937" >[CLS]</text><line x1="52" y1="382" x2="52" y2="362" stroke="#374151" stroke-width="1.5" marker-end="url(#a)"/><rect x="82" y="384" width="48" height="26" rx="4" fill="#ffffff" stroke="#6b7280" stroke-width="1.2"/><text x="106" y="402" font-size="12" text-anchor="middle" font-weight="normal" fill="#1f2937" >大谷</text><line x1="106" y1="382" x2="106" y2="362" stroke="#374151" stroke-width="1.5" marker-end="url(#a)"/><rect x="136" y="384" width="48" height="26" rx="4" fill="#ffffff" stroke="#6b7280" stroke-width="1.2"/><text x="160" y="402" font-size="12" text-anchor="middle" font-weight="normal" fill="#1f2937" >翔平</text><line x1="160" y1="382" x2="160" y2="362" stroke="#374151" stroke-width="1.5" marker-end="url(#a)"/><rect x="190" y="384" width="48" height="26" rx="4" fill="#ffffff" stroke="#6b7280" stroke-width="1.2"/><text x="214" y="402" font-size="12" text-anchor="middle" font-weight="normal" fill="#1f2937" >…</text><line x1="214" y1="382" x2="214" y2="362" stroke="#374151" stroke-width="1.5" marker-end="url(#a)"/><rect x="244" y="384" width="48" height="26" rx="4" fill="#ffffff" stroke="#6b7280" stroke-width="1.2"/><text x="268" y="402" font-size="12" text-anchor="middle" font-weight="normal" fill="#1f2937" >[SEP]</text><line x1="268" y1="382" x2="268" y2="362" stroke="#374151" stroke-width="1.5" marker-end="url(#a)"/><rect x="24" y="300" width="272" height="58" rx="8" fill="#dbeafe" stroke="#2563eb" stroke-width="2"/><text x="160" y="324" font-size="15" text-anchor="middle" font-weight="bold" fill="#1f2937" >BERT 本体（12層）</text><text x="160" y="345" font-size="12" text-anchor="middle" font-weight="normal" fill="#374151" >各トークン → 768 次元ベクトル</text><rect x="330" y="6" width="300" height="418" rx="10" fill="#ffffff" stroke="#e5e7eb" stroke-width="1"/><text x="480" y="30" font-size="16" text-anchor="middle" font-weight="bold" fill="#1f2937" >固有表現認識（NER）</text><rect x="348" y="384" width="48" height="26" rx="4" fill="#ffffff" stroke="#6b7280" stroke-width="1.2"/><text x="372" y="402" font-size="12" text-anchor="middle" font-weight="normal" fill="#1f2937" >[CLS]</text><line x1="372" y1="382" x2="372" y2="362" stroke="#374151" stroke-width="1.5" marker-end="url(#a)"/><rect x="402" y="384" width="48" height="26" rx="4" fill="#ffffff" stroke="#6b7280" stroke-width="1.2"/><text x="426" y="402" font-size="12" text-anchor="middle" font-weight="normal" fill="#1f2937" >大谷</text><line x1="426" y1="382" x2="426" y2="362" stroke="#374151" stroke-width="1.5" marker-end="url(#a)"/><rect x="456" y="384" width="48" height="26" rx="4" fill="#ffffff" stroke="#6b7280" stroke-width="1.2"/><text x="480" y="402" font-size="12" text-anchor="middle" font-weight="normal" fill="#1f2937" >翔平</text><line x1="480" y1="382" x2="480" y2="362" stroke="#374151" stroke-width="1.5" marker-end="url(#a)"/><rect x="510" y="384" width="48" height="26" rx="4" fill="#ffffff" stroke="#6b7280" stroke-width="1.2"/><text x="534" y="402" font-size="12" text-anchor="middle" font-weight="normal" fill="#1f2937" >…</text><line x1="534" y1="382" x2="534" y2="362" stroke="#374151" stroke-width="1.5" marker-end="url(#a)"/><rect x="564" y="384" width="48" height="26" rx="4" fill="#ffffff" stroke="#6b7280" stroke-width="1.2"/><text x="588" y="402" font-size="12" text-anchor="middle" font-weight="normal" fill="#1f2937" >[SEP]</text><line x1="588" y1="382" x2="588" y2="362" stroke="#374151" stroke-width="1.5" marker-end="url(#a)"/><rect x="344" y="300" width="272" height="58" rx="8" fill="#dbeafe" stroke="#2563eb" stroke-width="2"/><text x="480" y="324" font-size="15" text-anchor="middle" font-weight="bold" fill="#1f2937" >BERT 本体（12層）</text><text x="480" y="345" font-size="12" text-anchor="middle" font-weight="normal" fill="#374151" >各トークン → 768 次元ベクトル</text><rect x="650" y="6" width="300" height="418" rx="10" fill="#ffffff" stroke="#e5e7eb" stroke-width="1"/><text x="800" y="30" font-size="16" text-anchor="middle" font-weight="bold" fill="#1f2937" >文埋め込み（SimCSE）</text><rect x="668" y="384" width="48" height="26" rx="4" fill="#ffffff" stroke="#6b7280" stroke-width="1.2"/><text x="692" y="402" font-size="12" text-anchor="middle" font-weight="normal" fill="#1f2937" >[CLS]</text><line x1="692" y1="382" x2="692" y2="362" stroke="#374151" stroke-width="1.5" marker-end="url(#a)"/><rect x="722" y="384" width="48" height="26" rx="4" fill="#ffffff" stroke="#6b7280" stroke-width="1.2"/><text x="746" y="402" font-size="12" text-anchor="middle" font-weight="normal" fill="#1f2937" >大谷</text><line x1="746" y1="382" x2="746" y2="362" stroke="#374151" stroke-width="1.5" marker-end="url(#a)"/><rect x="776" y="384" width="48" height="26" rx="4" fill="#ffffff" stroke="#6b7280" stroke-width="1.2"/><text x="800" y="402" font-size="12" text-anchor="middle" font-weight="normal" fill="#1f2937" >翔平</text><line x1="800" y1="382" x2="800" y2="362" stroke="#374151" stroke-width="1.5" marker-end="url(#a)"/><rect x="830" y="384" width="48" height="26" rx="4" fill="#ffffff" stroke="#6b7280" stroke-width="1.2"/><text x="854" y="402" font-size="12" text-anchor="middle" font-weight="normal" fill="#1f2937" >…</text><line x1="854" y1="382" x2="854" y2="362" stroke="#374151" stroke-width="1.5" marker-end="url(#a)"/><rect x="884" y="384" width="48" height="26" rx="4" fill="#ffffff" stroke="#6b7280" stroke-width="1.2"/><text x="908" y="402" font-size="12" text-anchor="middle" font-weight="normal" fill="#1f2937" >[SEP]</text><line x1="908" y1="382" x2="908" y2="362" stroke="#374151" stroke-width="1.5" marker-end="url(#a)"/><rect x="664" y="300" width="272" height="58" rx="8" fill="#dbeafe" stroke="#2563eb" stroke-width="2"/><text x="800" y="324" font-size="15" text-anchor="middle" font-weight="bold" fill="#1f2937" >BERT 本体（12層）</text><text x="800" y="345" font-size="12" text-anchor="middle" font-weight="normal" fill="#374151" >各トークン → 768 次元ベクトル</text><line x1="52" y1="298" x2="52" y2="262" stroke="#374151" stroke-width="1.5" marker-end="url(#a)"/><rect x="28" y="222" width="200" height="40" rx="6" fill="#f3f4f6" stroke="#374151" stroke-width="1.5"/><text x="128.0" y="239.0" font-size="13" text-anchor="middle" font-weight="normal" fill="#1f2937" >pooler</text><text x="128.0" y="256.0" font-size="11" text-anchor="middle" font-weight="normal" fill="#4b5563" >Linear(768→768)＋tanh</text><line x1="112" y1="220" x2="112" y2="196" stroke="#374151" stroke-width="1.5" marker-end="url(#a)"/><rect x="28" y="156" width="200" height="40" rx="6" fill="#fef3c7" stroke="#b45309" stroke-width="1.5"/><text x="128.0" y="173.0" font-size="13" text-anchor="middle" font-weight="normal" fill="#1f2937" >classifier</text><text x="128.0" y="190.0" font-size="11" text-anchor="middle" font-weight="normal" fill="#4b5563" >Linear(768→2 / 3 / 1)</text><line x1="112" y1="154" x2="112" y2="130" stroke="#374151" stroke-width="1.5" marker-end="url(#a)"/><rect x="28" y="68" width="270" height="62" rx="6" fill="#ffffff" stroke="#374151" stroke-width="1.5"/><text x="163.0" y="104.0" font-size="13" text-anchor="middle" font-weight="normal" fill="#1f2937" ></text><text x="40" y="90" font-size="12.5" text-anchor="start" font-weight="normal" fill="#1f2937" >MARC-ja: softmax → 2クラス確率</text><text x="40" y="107" font-size="12.5" text-anchor="start" font-weight="normal" fill="#1f2937" >JNLI: softmax → 3クラス確率</text><text x="40" y="124" font-size="12.5" text-anchor="start" font-weight="normal" fill="#1f2937" >JSTS: 1値をそのまま出力（回帰）</text><text x="160" y="284" font-size="12" text-anchor="middle" font-weight="bold" fill="#b45309" >[CLS] の位置だけ使う</text><line x1="372" y1="298" x2="372" y2="236" stroke="#374151" stroke-width="1.5" marker-end="url(#a)"/><line x1="426" y1="298" x2="426" y2="236" stroke="#374151" stroke-width="1.5" marker-end="url(#a)"/><line x1="480" y1="298" x2="480" y2="236" stroke="#374151" stroke-width="1.5" marker-end="url(#a)"/><line x1="534" y1="298" x2="534" y2="236" stroke="#374151" stroke-width="1.5" marker-end="url(#a)"/><line x1="588" y1="298" x2="588" y2="236" stroke="#374151" stroke-width="1.5" marker-end="url(#a)"/><rect x="348" y="196" width="264" height="40" rx="6" fill="#fef3c7" stroke="#b45309" stroke-width="1.5"/><text x="480.0" y="213.0" font-size="13" text-anchor="middle" font-weight="normal" fill="#1f2937" >classifier（全トークン共通）</text><text x="480.0" y="230.0" font-size="11" text-anchor="middle" font-weight="normal" fill="#4b5563" >Linear(768→17)</text><line x1="480" y1="194" x2="480" y2="160" stroke="#374151" stroke-width="1.5" marker-end="url(#a)"/><rect x="348" y="90" width="264" height="70" rx="6" fill="#ffffff" stroke="#374151" stroke-width="1.5"/><text x="480.0" y="130.0" font-size="13" text-anchor="middle" font-weight="normal" fill="#1f2937" ></text><text x="480" y="112" font-size="12.5" text-anchor="middle" font-weight="normal" fill="#1f2937" >トークンごとに softmax（17クラス）</text><text x="480" y="132" font-size="12.5" text-anchor="middle" font-weight="normal" fill="#1f2937" >O ／ B-人名 ／ I-人名 ／ B-地名 …</text><text x="480" y="150" font-size="11" text-anchor="middle" font-weight="normal" fill="#4b5563" >（8種類 × B・I ＋ O）</text><text x="480" y="284" font-size="12" text-anchor="middle" font-weight="bold" fill="#b45309" >全トークンの位置を使う</text><line x1="692" y1="298" x2="692" y2="222" stroke="#374151" stroke-width="1.5" marker-end="url(#a)"/><rect x="668" y="182" width="264" height="40" rx="6" fill="#fef3c7" stroke="#b45309" stroke-width="1.5"/><text x="800.0" y="207.0" font-size="13" text-anchor="middle" font-weight="normal" fill="#1f2937" >[CLS] の最終層ベクトル（768次元）</text><line x1="800" y1="180" x2="800" y2="154" stroke="#374151" stroke-width="1.5" marker-end="url(#a)"/><rect x="668" y="90" width="264" height="64" rx="6" fill="#ffffff" stroke="#374151" stroke-width="1.5"/><text x="800.0" y="127.0" font-size="13" text-anchor="middle" font-weight="normal" fill="#1f2937" ></text><text x="800" y="114" font-size="12.5" text-anchor="middle" font-weight="normal" fill="#1f2937" >これがそのまま文埋め込み</text><text x="800" y="136" font-size="12.5" text-anchor="middle" font-weight="normal" fill="#1f2937" >2文の cos 類似度（−1〜1）で比較</text><text x="800" y="284" font-size="12" text-anchor="middle" font-weight="bold" fill="#b45309" >推論時はヘッドなし</text><text x="800" y="262" font-size="11" text-anchor="middle" font-weight="normal" fill="#4b5563" >（訓練時のみ Linear＋tanh を使用）</text></svg>
