<svg xmlns="http://www.w3.org/2000/svg" viewBox="0 0 560 330" width="560" height="330" font-family="Noto Sans JP, sans-serif" font-size="13" fill="#1f2937"><defs><marker id="a" viewBox="0 0 10 10" refX="9" refY="5" markerWidth="6" markerHeight="6" orient="auto-start-reverse"><path d="M0 0L10 5L0 10z" fill="#6b7280"/></marker><marker id="r" viewBox="0 0 10 10" refX="9" refY="5" markerWidth="6" markerHeight="6" orient="auto-start-reverse"><path d="M0 0L10 5L0 10z" fill="#dc2626"/></marker></defs><rect width="560" height="330" fill="#fff"/><rect x="62.0" y="290" width="56" height="26" rx="5" fill="#fef3c7" stroke="#9ca3af"/><text x="90" y="308" text-anchor="middle" font-size="10">[CLS]</text><rect x="122.0" y="290" width="56" height="26" rx="5" fill="#f3f4f6" stroke="#9ca3af"/><text x="150" y="308" text-anchor="middle" font-size="12">川べり</text><rect x="182.0" y="290" width="56" height="26" rx="5" fill="#f3f4f6" stroke="#9ca3af"/><text x="210" y="308" text-anchor="middle" font-size="12">…</text><line x1="90" y1="290" x2="90" y2="266" stroke="#6b7280" stroke-width="1.6" marker-end="url(#a)"/><line x1="150" y1="290" x2="150" y2="266" stroke="#6b7280" stroke-width="1.6" marker-end="url(#a)"/><line x1="210" y1="290" x2="210" y2="266" stroke="#6b7280" stroke-width="1.6" marker-end="url(#a)"/><rect x="50" y="200" width="200" height="64" rx="8" fill="#f5f3ff" stroke="#7c3aed"/><text x="150.0" y="228.0" text-anchor="middle" font-size="13" font-weight="bold">文A → BERT</text><text x="150.0" y="246.0" text-anchor="middle" font-size="11">（A と B で同じモデル）</text><line x1="90" y1="200" x2="90" y2="180" stroke="#6b7280" stroke-width="1.6" marker-end="url(#a)"/><line x1="150" y1="200" x2="150" y2="180" stroke="#6b7280" stroke-width="1.6" marker-end="url(#a)"/><line x1="210" y1="200" x2="210" y2="180" stroke="#6b7280" stroke-width="1.6" marker-end="url(#a)"/><rect x="83" y="148" width="14" height="30" rx="2" fill="#2563eb" opacity="0.9"/><rect x="143" y="148" width="14" height="30" rx="2" fill="#d1d5db" opacity="0.6"/><rect x="203" y="148" width="14" height="30" rx="2" fill="#d1d5db" opacity="0.6"/><line x1="90" y1="146" x2="240" y2="110" stroke="#2563eb" stroke-width="1.6" marker-end="url(#a)"/><rect x="322.0" y="290" width="56" height="26" rx="5" fill="#fef3c7" stroke="#9ca3af"/><text x="350" y="308" text-anchor="middle" font-size="10">[CLS]</text><rect x="382.0" y="290" width="56" height="26" rx="5" fill="#f3f4f6" stroke="#9ca3af"/><text x="410" y="308" text-anchor="middle" font-size="12">サーファ</text><rect x="442.0" y="290" width="56" height="26" rx="5" fill="#f3f4f6" stroke="#9ca3af"/><text x="470" y="308" text-anchor="middle" font-size="12">…</text><line x1="350" y1="290" x2="350" y2="266" stroke="#6b7280" stroke-width="1.6" marker-end="url(#a)"/><line x1="410" y1="290" x2="410" y2="266" stroke="#6b7280" stroke-width="1.6" marker-end="url(#a)"/><line x1="470" y1="290" x2="470" y2="266" stroke="#6b7280" stroke-width="1.6" marker-end="url(#a)"/><rect x="310" y="200" width="200" height="64" rx="8" fill="#f5f3ff" stroke="#7c3aed"/><text x="410.0" y="228.0" text-anchor="middle" font-size="13" font-weight="bold">文B → BERT</text><text x="410.0" y="246.0" text-anchor="middle" font-size="11">（A と B で同じモデル）</text><line x1="350" y1="200" x2="350" y2="180" stroke="#6b7280" stroke-width="1.6" marker-end="url(#a)"/><line x1="410" y1="200" x2="410" y2="180" stroke="#6b7280" stroke-width="1.6" marker-end="url(#a)"/><line x1="470" y1="200" x2="470" y2="180" stroke="#6b7280" stroke-width="1.6" marker-end="url(#a)"/><rect x="343" y="148" width="14" height="30" rx="2" fill="#2563eb" opacity="0.9"/><rect x="403" y="148" width="14" height="30" rx="2" fill="#d1d5db" opacity="0.6"/><rect x="463" y="148" width="14" height="30" rx="2" fill="#d1d5db" opacity="0.6"/><line x1="350" y1="146" x2="320" y2="110" stroke="#2563eb" stroke-width="1.6" marker-end="url(#a)"/><rect x="180" y="72" width="200" height="36" rx="8" fill="#dbeafe" stroke="#2563eb"/><text x="280.0" y="95.0" text-anchor="middle" font-size="13" font-weight="bold">コサイン類似度 → 0.86</text><text x="280" y="30" text-anchor="middle" font-size="12" fill="#6b7280">対照学習：同じ文を2回入れた2つのベクトルを近づけ、他の文とは遠ざける</text><text x="280" y="50" text-anchor="middle" font-size="11" fill="#6b7280">（2回の違いはドロップアウトだけ／正解ラベル不要／日本語 Wikipedia の文）</text></svg>